Coordinates
version=1
nRows=60
nColumns=12
inDegrees=yes

Units are S.I. units (second, meters, Newtons, ...)
Angles are in degrees

endheader
time	SC_y	SC_z	SC_x	AC_y	AC_z	AC_x	GH_y	GH_z	GH_yy	EL_x	PS_y
       0.0              -33.36          19.08          76.98          55.85          5.956         -13.86          29.43         -1.107          170.6          124.9          95.84
   0.02907              -33.36          19.08          76.98          55.85          5.953         -13.86          29.41           -1.1          170.6          124.9          95.83
   0.05814              -33.36          19.09          76.98          55.85          5.949         -13.86          29.39         -1.092          170.5          124.9          95.83
   0.08721              -33.36          19.09          76.97          55.86          5.945         -13.86          29.36         -1.084          170.5          124.9          95.83
    0.1163              -33.37          19.09          76.97          55.86          5.941         -13.86          29.34         -1.075          170.4          124.9          95.82
    0.1453              -33.37          19.09          76.97          55.86          5.937         -13.86          29.31         -1.066          170.4          124.9          95.82
    0.1744              -33.37          19.09          76.96          55.86          5.932         -13.86          29.28         -1.056          170.3          124.9          95.81
    0.2035              -33.38          19.09          76.96          55.86          5.927         -13.86          29.24         -1.045          170.3          124.9          95.81
    0.2326              -33.38           19.1          76.95          55.87          5.922         -13.86          29.21         -1.034          170.2          124.9           95.8
    0.2616              -33.39           19.1          76.95          55.87          5.916         -13.85          29.17         -1.022          170.1          124.8           95.8
    0.2907              -33.39           19.1          76.94          55.87           5.91         -13.85          29.13         -1.009          170.1          124.8          95.79
    0.3198               -33.4           19.1          76.93          55.88          5.904         -13.85          29.09        -0.9946          170.0          124.8          95.79
    0.3488               -33.4          19.11          76.93          55.88          5.896         -13.85          29.04        -0.9794          169.9          124.8          95.78
    0.3779              -33.41          19.11          76.92          55.89          5.889         -13.85          28.99        -0.9629          169.8          124.8          95.77
     0.407              -33.42          19.11          76.91          55.89           5.88         -13.85          28.93        -0.9451          169.7          124.8          95.76
     0.436              -33.42          19.12           76.9           55.9          5.871         -13.85          28.87        -0.9258          169.6          124.8          95.75
    0.4651              -33.43          19.12          76.89           55.9          5.862         -13.85          28.81        -0.9048          169.4          124.8          95.74
    0.4942              -33.44          19.13          76.88          55.91          5.851         -13.84          28.74        -0.8819          169.3          124.7          95.73
    0.5232              -33.45          19.13          76.87          55.91          5.839         -13.84          28.66         -0.857          169.2          124.7          95.72
    0.5523              -33.46          19.14          76.86          55.92          5.827         -13.84          28.58        -0.8296          169.0          124.7          95.71
    0.5814              -33.47          19.14          76.85          55.93          5.813         -13.84          28.48        -0.7996          168.8          124.7           95.7
    0.6105              -33.48          19.15          76.83          55.94          5.797         -13.83          28.38        -0.7666          168.6          124.7          95.68
    0.6395               -33.5          19.16          76.81          55.94           5.78         -13.83          28.27        -0.7301          168.4          124.6          95.66
    0.6686              -33.51          19.17           76.8          55.95          5.761         -13.83          28.15        -0.6897          168.2          124.6          95.64
    0.6977              -33.53          19.18          76.78          55.97           5.74         -13.82          28.01        -0.6447          167.9          124.6          95.62
    0.7267              -33.55          19.19          76.75          55.98          5.717         -13.82          27.85        -0.5946          167.6          124.5           95.6
    0.7558              -33.57           19.2          76.73          55.99          5.691         -13.82          27.68        -0.5384          167.3          124.5          95.57
    0.7849              -33.59          19.21           76.7          56.01          5.661         -13.81          27.48        -0.4752          166.9          124.5          95.55
    0.8139              -33.62          19.22          76.67          56.03          5.628          -13.8          27.26        -0.4038          166.5          124.4          95.51
     0.843              -33.65          19.24          76.63          56.05           5.59          -13.8          27.01        -0.3227          166.0          124.4          95.48
    0.8721              -33.68          19.26          76.59          56.07          5.547         -13.79          26.73        -0.2301          165.5          124.3          95.43
    0.9011              -33.72          19.28          76.54           56.1          5.497         -13.78           26.4        -0.1239          164.8          124.2          95.38
    0.9302              -33.77          19.31          76.49          56.13           5.44         -13.77          26.02      -0.001324          164.1          124.1          95.33
    0.9593              -33.82          19.33          76.42          56.16          5.373         -13.76          25.58         0.1412          163.3          124.0          95.26
    0.9884              -33.88          19.37          76.35          56.21          5.296         -13.75          25.07         0.3079          162.3          123.9          95.18
     1.017              -33.96          19.41          76.26          56.25          5.204         -13.73          24.46         0.5044          161.1          123.8          95.09
     1.046              -34.04          19.45          76.16          56.31          5.095         -13.71          23.74         0.7379          159.7          123.6          94.99
     1.076              -34.15          19.51          76.03          56.38          4.964         -13.69          22.87          1.018          158.1          123.4          94.86
     1.105              -34.27          19.58          75.88          56.47          4.806         -13.66          21.83          1.357          156.1          123.2           94.7
     1.134              -34.43          19.66          75.69          56.57          4.613         -13.63          20.55           1.77          153.6          122.9          94.51
     1.163              -34.62          19.77          75.46           56.7          4.375         -13.58          18.98          2.281          150.6          122.5          94.27
     1.192              -34.86          19.89          75.18          56.86          4.077         -13.53          17.01          2.918          146.8          122.1          93.98
     1.221              -35.16          20.06          74.82          57.06          3.703         -13.47          14.53           3.72          142.1          121.5          93.61
      1.25              -35.54          20.26          74.36          57.32          3.227         -13.38          11.39          4.739          136.1          120.8          93.14
     1.279              -36.02          20.53          73.77          57.65          2.618         -13.28          7.359          6.045          128.4          119.9          92.54
     1.308              -36.65          20.86          73.02          58.07          1.836         -13.14          2.189          7.719          118.5          118.8          91.77
     1.337              -37.44           21.3          72.06          58.61          0.837         -12.96         -4.415          9.859          105.8          117.3          90.78
     1.366              -38.45          21.84          70.85          59.28        -0.4188         -12.74         -12.72          12.55          89.91          115.4          89.54
     1.395              -39.67           22.5          69.38          60.11         -1.949         -12.47         -22.84          15.83          70.53          113.1          88.03
     1.424              -41.09          23.27          67.67          61.06         -3.723         -12.16         -34.57          19.63          48.07          110.5          86.27
     1.453              -42.62           24.1          65.82           62.1         -5.644         -11.83         -47.27          23.74          23.74          107.6          84.37
     1.483              -44.16          24.93          63.98          63.13         -7.564         -11.49         -59.97          27.86        -0.5783          104.7          82.48
     1.512              -45.57           25.7          62.27          64.09         -9.338         -11.18          -71.7          31.66         -23.04          102.1          80.72
     1.541               -46.8          26.36           60.8          64.91         -10.87         -10.91         -81.81          34.93         -42.42          99.79          79.21
      1.57               -47.8           26.9          59.59          65.59         -12.12         -10.69         -90.12          37.62         -58.32          97.92          77.97
     1.599               -48.6          27.33          58.63          66.13         -13.12         -10.51         -96.72          39.76         -70.97          96.43          76.98
     1.628              -49.22          27.67          57.88          66.55          -13.9         -10.38         -101.9          41.44         -80.87          95.26          76.21
     1.657              -49.71          27.93          57.29          66.88         -14.51         -10.27         -105.9          42.74         -88.59          94.35          75.61
     1.686              -50.09          28.14          56.83          67.13         -14.99         -10.18         -109.1          43.76         -94.61          93.64          75.14
     1.715              -50.39           28.3          56.47          67.34         -15.36         -10.12         -111.5          44.56         -99.36          93.08          74.77
